<?xml version="1.0" encoding="utf-8"?>
<!-- Generator: Adobe Illustrator 24.0.1, SVG Export Plug-In . SVG Version: 6.00 Build 0)  -->
<svg version="1.1" id="Layer_1" xmlns="http://www.w3.org/2000/svg" xmlns:xlink="http://www.w3.org/1999/xlink" x="0px" y="0px"
	 viewBox="0 0 396.9 396.9" style="enable-background:new 0 0 396.9 396.9;" xml:space="preserve">
<style type="text/css">
	.st0{fill:#777777;}
</style>
<g>
	<path class="st0" d="M46,192.9c-1.5-5.5-5.5-7.8-10.9-6.5c-4.4,1.1-6.9,5.5-5.8,10.1c1.3,5.1,4.8,6.9,10.8,5.5
		c0.6-0.1,1.2-0.3,2.1-0.6c-0.1,2.7-0.1,5.2-2.6,6.3c-2.3,1.1-4-0.1-5.5-2.1c-0.9-1.1-2.6-1.1-3.7-0.3c-1.5,1.1-0.1,2.4,0.5,3.4
		c1.9,3,5,3.7,8.3,3.3s5.5-2.3,6.4-5.4C46.9,202.1,47.2,197.5,46,192.9z M37.9,198.8c-2.2-0.3-4-1.2-4.1-3.9c-0.1-2.8,1.2-4.5,4-4.5
		c2.5,0,3.9,1.5,4,4.1C41.9,197,40.4,198.3,37.9,198.8z"/>
	<path class="st0" d="M203.3,51.3c3.3,0,5.4,0,7.6,0c1.4,0,2.1,0.6,2.1,2.1s-0.8,2-2.2,2c-3.8,0-7.6,0-11.5,0
		c-1.2,0-2.8,0.5-3.3-1.3c-0.4-1.6,0.1-2.8,1.4-3.9c2.4-2,4.7-4.2,7-6.4c1.6-1.5,2.8-3.3,2.9-5.6c0.1-1.8-0.1-3.4-1.9-4.2
		c-1.8-0.7-3.4-0.1-4.2,1.6c-1.1,2.3-2.9,3.3-4.6,1.7c-1.5-1.4,0-3.4,1.1-4.8c2.4-3,7.4-3.8,10.9-1.9s4.7,6,3,10.4
		C210.2,45,206.7,47.5,203.3,51.3z"/>
	<path class="st0" d="M359.4,186.2c3.9-0.1,6.6,0.7,8,3.6c1.2,2.5,1.2,5.3-1,7.4c-1.4,1.3-1,1.8,0.2,3c2.5,2.3,2.7,5.2,1.2,8.2
		c-1.6,3.3-4.6,4-8,3.9s-6.1-1.4-7.7-4.5c-0.5-1-1-2.3,0.2-3.1c1-0.6,2.3-0.6,3.3,0.2c0.9,0.7,1.3,2,2.2,2.6c2,1.3,4.4,1.3,5.5-1
		c1.1-2.1,0.6-4.2-2.1-5.2c-1.4-0.5-3.6,0-3.7-2.4c-0.1-2.6,2.3-1.9,3.6-2.5c2-0.9,2.9-2.3,1.7-4.3c-1.2-2.1-3.4-2.5-5-0.9
		c-1.6,1.7-2.3,3.1-4.6,2.2c-0.9-0.3-1.2-1.7-1.1-2.3c0.7-2.4,2.2-3.6,4.6-4.3C357.9,186.3,359.1,186.3,359.4,186.2z"/>
	<path class="st0" d="M187.1,43.2c0-0.8,0.1-2.5,0-4.9c0-1.6,0.1-2.7-0.6-3.2c-0.8-0.6-1.9,0-2.5-0.6c-0.8-0.9-0.8-3.5,0.4-3.9
		c2-0.6,3.8-0.4,5.8-0.1c2.3,0.4,2,2.7,2,4.1c0,2.8-0.1,5.6-0.1,8.4c0,3.3-0.1,6.6,0,9.9c0,1.8-0.6,2.7-2.5,2.7
		c-0.9,0-1.5-0.2-1.9-0.6c-0.7-0.7-0.6-1.7-0.6-2.1"/>
	<path class="st0" d="M122.2,335.6c-2,3.4-4.3,7.3-6.5,11.1c-0.4,0.7-0.9,0.7-1.6,0.4c-0.8-0.4-1.5-0.9-1-1.9
		c2.2-3.9,4.4-7.7,6.7-11.5c0.4-0.6,1.1-0.6,1.8-0.2C122.2,333.8,122.5,334.3,122.2,335.6z"/>
	<path class="st0" d="M284.3,344.9c0.5,1.7-0.2,2-0.8,2.3c-0.6,0.4-1.2,0.3-1.6-0.4c-2.3-4-4.6-8-6.9-12c-0.4-0.6,0-1.3,0.6-1.7
		c0.6-0.4,1.4-0.4,1.8,0.2C279.9,337.3,282.3,341.5,284.3,344.9z"/>
	<path class="st0" d="M346.6,115.9c-0.4,0.3-0.8,0.8-1.4,1.1c-3.4,2-6.8,4-10.2,5.9c-0.9,0.6-1.8,0.8-2.5-0.3
		c-0.5-0.8-0.4-1.6,0.5-2.1c3.7-2.1,7.4-4.2,11.1-6.3C345.6,113.3,346.1,114.4,346.6,115.9z"/>
	<path class="st0" d="M344.1,285.6c-3.9-2.3-7.9-4.8-12-7.3c-0.2-0.2-0.3-0.9-0.2-1.3c0.2-0.7,0.9-1.3,1.5-0.9
		c4.2,2.3,8.3,4.6,12.4,7c0.8,0.5,0.3,1.1,0,1.7C345.6,285.4,345.2,285.8,344.1,285.6z"/>
	<path class="st0" d="M284.6,54.3c-2.1,3.5-4.4,7.4-6.8,11.3c-0.5,0.8-1.2,0.2-1.8,0c-0.7-0.3-0.9-1-0.6-1.6
		c2.1-3.7,4.3-7.4,6.4-11.1c0.4-0.7,0.9-0.8,1.6-0.5C284.1,52.7,284.8,52.8,284.6,54.3z"/>
	<path class="st0" d="M53.3,114c3.3,2,7,4.1,10.7,6.3c0.7,0.4,0.6,1.1,0.3,1.7c-0.4,0.8-1,1.2-2,0.7c-3.6-2.1-7.1-4.1-10.7-6.2
		c-0.8-0.4-0.6-1-0.2-1.6C51.8,114.4,52.1,113.7,53.3,114z"/>
	<path class="st0" d="M64.9,277.7c0,1.1-0.7,1.6-1.4,2c-3.1,1.8-6.3,3.6-9.4,5.5c-0.9,0.5-1.8,0.9-2.5-0.4c-0.7-1.2,0-1.8,0.9-2.3
		c3.3-1.9,6.6-3.8,9.8-5.7C63.7,275.9,64.5,276.3,64.9,277.7z"/>
	<path class="st0" d="M121.8,63.3c0.2,1.3-0.3,1.7-0.9,2c-0.7,0.4-1.3,0.3-1.7-0.3c-2.1-3.5-4.1-7-6.2-10.6
		c-0.4-0.6-0.3-1.3,0.4-1.6c0.5-0.2,1.6-0.5,1.7-0.3C117.5,56.2,119.8,59.9,121.8,63.3z"/>
	<path class="st0" d="M194.3,353.6c-0.1-3,0.3-5.3,2.7-6.5c2-1,3.8-0.3,5.2,1.5c1.1,1.4,2.9,1.4,3.9,0.3s-0.2-2.5-1-3.5
		c-2.1-2.6-5.1-3-8.1-2.5c-3.3,0.5-5.4,2.6-6.2,5.7c-1.2,4.7-1.2,9.6-0.1,14.3c1.1,4.5,5.3,6.7,10.2,5.8c4.3-0.9,6.5-3.6,6.6-8
		C207.6,353.2,202.8,350.4,194.3,353.6z M198.5,364.7c-2.7-0.2-4.2-1.9-4.1-4.6c0.1-2.8,1.9-4.2,4.6-4.1c2.6,0.1,3.9,1.9,3.9,4.3
		C203,362.9,201.5,364.6,198.5,364.7z"/>
</g>
</svg>
